# xmcd
#
# Track frame offsets:
#	150
#	23568
#	36645
#	54274
#	63058
#
# Disc length: 935 seconds
#
# Revision: 0
# Processed by: cddbd v1.5.1PL0 Copyright (c) Steve Scherf et al.
# Submitted via: dBpowerAMP V4.0
#
DISCID=3603a505
DTITLE=Rosegarden - Homegrown
DYEAR=2004
DGENRE=
TTITLE0=The Road
TTITLE1=Hillbilly Sound
TTITLE2=Homeland
TTITLE3=Just The Same
TTITLE4=Eva, Chrissie, Suzy, Ginger And My Sweet Marie
EXTD=www.rosegardenband.com
EXTT0=
EXTT1=
EXTT2=
EXTT3=
EXTT4=
PLAYORDER=
